<?xml version="1.0" encoding="UTF-8"?>
<svg version="1.1" xmlns="http://www.w3.org/2000/svg" width="709" height="274">
<path d="M0 0 C0.495 0.495 0.495 0.495 1 1 C0.30232558 7.39534884 0.30232558 7.39534884 -1 10 C-1.71008478 13.16858587 -1.77823359 15.83749663 -1 19 C1.03233518 21.48733559 3.27311064 23.51419849 5.6640625 25.65625 C9.24697839 29.25114888 13 34.72761661 13 40 C14.27875 39.95875 15.5575 39.9175 16.875 39.875 C19.0546875 39.8046875 19.0546875 39.8046875 21 40 C23 42 23 42 23.24291992 44.32250977 C23.23881104 45.26924561 23.23470215 46.21598145 23.23046875 47.19140625 C23.22853516 48.21814453 23.22660156 49.24488281 23.22460938 50.30273438 C23.21236328 51.37845703 23.20011719 52.45417969 23.1875 53.5625 C23.1865332 55.18188477 23.1865332 55.18188477 23.18554688 56.83398438 C23.14014598 64.85985402 23.14014598 64.85985402 22 66 C19.32941149 66.14115161 16.67567762 66.04247107 14 66 C13.72414063 66.72574219 13.44828125 67.45148438 13.1640625 68.19921875 C10.46796561 74.68613644 6.95448347 80.3165028 1.875 85.1875 C-4.65770193 91.45839518 -6.41074883 96.52395845 -7.60546875 105.5234375 C-8 108 -8 108 -9 109 C-12.80588144 109.25208722 -16.62425456 109.18522344 -20.4375 109.1875 C-21.51322266 109.19974609 -22.58894531 109.21199219 -23.69726562 109.22460938 C-24.72400391 109.22654297 -25.75074219 109.22847656 -26.80859375 109.23046875 C-28.22869751 109.23663208 -28.22869751 109.23663208 -29.67749023 109.24291992 C-32 109 -32 109 -34 107 C-34 105.35 -34 103.7 -34 102 C-38.29 102 -42.58 102 -47 102 C-47.66 104.31 -48.32 106.62 -49 109 C-52.79160297 109.05786668 -56.58309311 109.09355054 -60.375 109.125 C-61.99535156 109.15013672 -61.99535156 109.15013672 -63.6484375 109.17578125 C-64.6796875 109.18222656 -65.7109375 109.18867188 -66.7734375 109.1953125 C-68.20308838 109.21102295 -68.20308838 109.21102295 -69.66162109 109.22705078 C-72 109 -72 109 -74 107 C-74.30970511 105.32243063 -74.54984895 103.63163571 -74.75 101.9375 C-75.78685599 95.76458994 -78.2453097 91.9033855 -82 87 C-92.0168208 73.67365691 -96.73146601 60.98599506 -94.5 44.25 C-94.335 43.5075 -94.17 42.765 -94 42 C-94.53109375 41.60167969 -95.0621875 41.20335937 -95.609375 40.79296875 C-102 36 -102 36 -104.0625 34.3125 C-106.74046384 32.49839546 -108.84306671 32.78475455 -112 33 C-110 31 -110 31 -107 29 C-107 27.9275 -107 26.855 -107 25.75 C-107 21.51633912 -106.45518144 19.43725402 -104 16 C-101.125 14.875 -101.125 14.875 -98 15 C-95.125 16.5625 -95.125 16.5625 -93 19 C-92.375 21.9375 -92.375 21.9375 -93 25 C-95.5 27.75 -95.5 27.75 -98 30 C-98 30.66 -98 31.32 -98 32 C-95.36 32.99 -92.72 33.98 -90 35 C-89.731875 34.0925 -89.46375 33.185 -89.1875 32.25 C-88.10423706 29.28528037 -87.01640543 27.3830246 -85 25 C-82.26465145 25.40523682 -80.97292825 26.02243088 -78.8125 27.8125 C-70.29917036 34.43397861 -60.54125467 35.90316747 -50 35 C-40.28080282 32.83438023 -32.35269193 27.77702829 -26.6875 19.5625 C-24.91455662 16.72192586 -23.47380793 13.87213358 -22.125 10.8125 C-19.57189066 5.52693066 -15.25870081 2.28104724 -9.84375 0.15234375 C-6.2317526 -0.86521522 -3.5469283 -1.15957271 0 0 Z M-102 20 C-103.35618499 21.12534105 -103.35618499 21.12534105 -103.0625 24.0625 C-103.041875 25.031875 -103.02125 26.00125 -103 27 C-99.81509993 27.2773501 -99.81509993 27.2773501 -97 25 C-97.33 23.35 -97.66 21.7 -98 20 C-99.32 20 -100.64 20 -102 20 Z M-10 33 C-10.76956136 35.34533951 -10.76956136 35.34533951 -11 38 C-10 40 -10 40 -8 41 C-5.34533951 40.76956136 -5.34533951 40.76956136 -3 40 C-2.06576355 36.98968256 -1.95550089 36.13349732 -3 33 C-5.31 33 -7.62 33 -10 33 Z " fill="#FEFEFE" transform="translate(215,95)"/>
<path d="M0 0 C2.88923151 2.16929185 3.22858403 3.23313771 3.9453125 6.7265625 C4.16960937 7.77199219 4.39390625 8.81742188 4.625 9.89453125 C4.87507813 11.17972656 5.12515625 12.46492187 5.3828125 13.7890625 C5.73837899 15.5354019 6.09523977 17.28147807 6.453125 19.02734375 C7.45392618 23.94326168 8.42636391 28.86433865 9.3828125 33.7890625 C9.7128125 33.7890625 10.0428125 33.7890625 10.3828125 33.7890625 C10.49351074 32.93675049 10.60420898 32.08443848 10.71826172 31.20629883 C11.13424227 28.0280083 11.55611682 24.85057045 11.98193359 21.67358398 C12.16461963 20.30149866 12.34499061 18.92910295 12.52294922 17.55639648 C12.77995686 15.57715048 13.04613478 13.59910215 13.3125 11.62109375 C13.46960449 10.43233643 13.62670898 9.2435791 13.78857422 8.01879883 C14.3828125 4.7890625 14.3828125 4.7890625 16.3828125 -0.2109375 C22.9828125 -0.2109375 29.5828125 -0.2109375 36.3828125 -0.2109375 C37.73523039 4.5225251 38.75499727 8.55802431 39.41796875 13.34375 C39.58748047 14.53484375 39.75699219 15.7259375 39.93164062 16.953125 C40.10115234 18.17773438 40.27066406 19.40234375 40.4453125 20.6640625 C40.78660002 23.12031768 41.1314497 25.5760815 41.48046875 28.03125 C41.70488647 29.65329346 41.70488647 29.65329346 41.93383789 31.30810547 C42.12765265 33.72386474 42.12765265 33.72386474 43.3828125 34.7890625 C43.5686792 33.7695752 43.7545459 32.75008789 43.94604492 31.69970703 C44.64128133 27.91956551 45.36560945 24.1454911 46.09887695 20.37255859 C46.41219127 18.73865118 46.71758681 17.10320461 47.01489258 15.46630859 C47.44361852 13.11366606 47.90050915 10.76802629 48.36328125 8.421875 C48.49059128 7.68848907 48.61790131 6.95510315 48.74906921 6.19949341 C49.17260742 4.13720703 49.17260742 4.13720703 50.3828125 0.7890625 C53.3771042 -0.96202294 55.93938584 -1.48870707 59.3828125 -1.4609375 C60.0221875 -1.46609375 60.6615625 -1.47125 61.3203125 -1.4765625 C63.88641754 -1.14607928 66.00116148 -0.19871451 68.3828125 0.7890625 C66.98573861 8.96397727 65.28553997 17.06060526 63.4609375 25.14941406 C63.01026834 27.15314355 62.56751481 29.15851864 62.125 31.1640625 C57.94641851 49.8955356 57.94641851 49.8955356 55.3828125 55.7890625 C51.79279641 56.98573453 48.7923286 56.99445131 45.0078125 57.0390625 C43.70070313 57.06484375 42.39359375 57.090625 41.046875 57.1171875 C37.18783879 56.77160217 35.37334747 56.20323982 32.3828125 53.7890625 C30.43652505 50.61232251 29.87246957 47.58815534 29.3125 43.9296875 C29.13847656 42.81464844 28.96445312 41.69960937 28.78515625 40.55078125 C28.61113281 39.39191406 28.43710937 38.23304688 28.2578125 37.0390625 C28.07605469 35.86472656 27.89429688 34.69039062 27.70703125 33.48046875 C27.25963979 30.5841977 26.81847198 27.68711754 26.3828125 24.7890625 C24.61537376 31.24405617 23.61085589 37.65621494 22.7578125 44.2890625 C22.55671875 45.80886719 22.55671875 45.80886719 22.3515625 47.359375 C22.02453655 49.83542859 21.70171808 52.31195225 21.3828125 54.7890625 C17.42151156 56.65146518 14.24547023 57.05944875 9.8828125 57.0390625 C8.779375 57.04421875 7.6759375 57.049375 6.5390625 57.0546875 C2.46249358 56.71160992 -0.41985539 56.15844874 -3.17536926 53.00697327 C-4.70975166 50.64667351 -5.33611967 48.80119164 -5.9675293 46.06811523 C-6.29753181 44.67163002 -6.29753181 44.67163002 -6.63420105 43.24693298 C-6.85932877 42.24892166 -7.08445648 41.25091034 -7.31640625 40.22265625 C-7.5563179 39.19221695 -7.79622955 38.16177765 -8.04341125 37.10011292 C-8.54792877 34.92497775 -9.04775499 32.74874986 -9.54321289 30.5715332 C-10.30312998 27.23340429 -11.07702603 23.89876188 -11.85351562 20.56445312 C-12.34196471 18.45070989 -12.82962206 16.33678352 -13.31640625 14.22265625 C-13.54760666 13.2226207 -13.77880707 12.22258514 -14.01701355 11.19224548 C-14.22755875 10.2644075 -14.43810394 9.33656952 -14.6550293 8.38061523 C-14.8413945 7.56439194 -15.0277597 6.74816864 -15.21977234 5.9072113 C-15.6171875 3.7890625 -15.6171875 3.7890625 -15.6171875 0.7890625 C-10.26208848 -1.30073224 -5.40311741 -2.49994985 0 0 Z " fill="#FDFDFD" transform="translate(279.6171875,119.2109375)"/>
<path d="M0 0 C2.69141724 1.90381258 4.88026872 3.91359739 7.015625 6.42578125 C7.716875 7.18890625 8.418125 7.95203125 9.140625 8.73828125 C14.32938152 16.17549893 14.97445548 23.55127245 14.015625 32.42578125 C11.63227619 41.76697094 6.50617881 48.06662118 -1.6015625 53.1640625 C-9.89794716 57.55706618 -18.87629759 56.98417775 -27.671875 54.30078125 C-35.92635435 49.62843445 -42.65946369 43.15254881 -45.4453125 33.953125 C-47.41176285 24.73360779 -45.74655104 17.43861925 -41.296875 9.36328125 C-31.12144982 -3.56225884 -15.11037434 -8.8810975 0 0 Z " fill="#FDFEFE" transform="translate(173.984375,68.57421875)"/>
<path d="M0 0 C2.24834496 -0.13526139 4.49902514 -0.23210804 6.75 -0.3125 C8.00296875 -0.37050781 9.2559375 -0.42851563 10.546875 -0.48828125 C14 0 14 0 16.41503906 2.31518555 C18.37133113 5.62900931 18.59791352 7.98076575 18.75 11.8125 C18.80542969 13.03839844 18.86085938 14.26429687 18.91796875 15.52734375 C19.00844105 19.35733786 19.07660691 23.16965444 19 27 C19.70382812 26.67773438 20.40765625 26.35546875 21.1328125 26.0234375 C26.47367817 24.11702496 32.77631776 23.93882346 38.1953125 25.72265625 C44.72867609 29.21560172 47.2860379 34.04493781 49.38671875 40.81640625 C49.58910156 41.53699219 49.79148437 42.25757813 50 43 C50.185625 43.61488281 50.37125 44.22976562 50.5625 44.86328125 C52.62266216 54.92496608 51.25944959 64.45960256 45.6796875 73.02734375 C41.51207184 78.41336071 36.34899047 80.88366984 30 83 C27.2601918 83.09754291 24.55163348 83.13913139 21.8125 83.125 C20.71711914 83.13080078 20.71711914 83.13080078 19.59960938 83.13671875 C4.8943055 83.11066861 4.8943055 83.11066861 0 79 C-0.48966686 76.26374331 -0.63519088 74.14335558 -0.56762695 71.4074707 C-0.56835709 70.63650055 -0.56908722 69.8655304 -0.56983948 69.07119751 C-0.56635501 66.52201045 -0.52745633 63.97464915 -0.48828125 61.42578125 C-0.47895611 59.65887958 -0.47183858 57.89196499 -0.46684265 56.12504578 C-0.44774918 51.47387007 -0.39862853 46.82347473 -0.34332275 42.17260742 C-0.29218068 37.42702797 -0.26933942 32.68132245 -0.24414062 27.93554688 C-0.19051175 18.62335499 -0.10517081 9.31174238 0 0 Z M18 43 C17.67241673 46.01136177 17.57600858 48.62745619 17.6875 51.625 C17.70296875 52.43372559 17.7184375 53.24245117 17.734375 54.07568359 C17.86373847 59.42809709 18.21490443 64.70060489 19 70 C22.61129927 70.33593482 24.56037306 70.24978804 27.75 68.4375 C32.64625662 63.13322199 32.36935765 56.7185336 32.265625 49.8203125 C31.90226489 45.96228312 30.77716438 42.77716438 28 40 C23.60756346 39.6095612 21.01809921 39.64511719 18 43 Z " fill="#FDFEFE" transform="translate(408,93)"/>
<path d="M0 0 C4.43194474 4.24415047 6.4087556 9.64140354 6.87109375 15.69921875 C6.73085777 26.29705235 1.1355252 32.84782687 -6.15234375 39.97265625 C-9.29868645 42.78780498 -12.64635919 45.33475764 -16.01953125 47.87109375 C-18.13719659 49.74873121 -19.11277558 51.16558654 -20.15625 53.765625 C-19.05667969 53.68183594 -17.95710937 53.59804687 -16.82421875 53.51171875 C-8.48132594 52.92139745 -0.47926004 52.59716787 7.84375 53.765625 C9.13598576 57.64233227 8.86648869 59.8110354 7.84375 63.765625 C3.94579719 67.88952425 1.29371302 69.33351616 -4.34901428 69.58717346 C-5.11169113 69.59578903 -5.87436798 69.6044046 -6.66015625 69.61328125 C-7.86151466 69.65019325 -7.86151466 69.65019325 -9.08714294 69.68785095 C-10.77192827 69.73359763 -12.45707687 69.76737215 -14.14233398 69.78979492 C-16.71607283 69.82808517 -19.28508908 69.91424473 -21.85742188 70.00585938 C-23.49993509 70.04452995 -25.14251631 70.08043155 -26.78515625 70.11328125 C-27.54985733 70.1401149 -28.31455841 70.16694855 -29.10243225 70.19459534 C-32.80106447 70.21606012 -34.91159243 69.9219037 -38.05834961 67.91186523 C-41.08444506 64.81604246 -43.17922878 62.20137581 -43.13671875 57.6953125 C-41.16811377 45.27795802 -28.85052702 35.63663009 -19.71875 28.015625 C-16.51018547 25.23573508 -14.45285309 22.9147549 -13.15625 18.765625 C-13.21353998 15.02202159 -13.21353998 15.02202159 -14.15625 11.765625 C-16.99708641 10.34520679 -19.01102278 10.45110228 -22.15625 10.765625 C-25.07405427 13.03502832 -26.70759433 15.38542843 -28.15625 18.765625 C-34.27399896 19.26503308 -37.18120953 18.01463102 -42.15625 14.765625 C-39.75754887 6.42468699 -36.94331511 1.29450841 -29.28125 -3.15625 C-19.51464827 -8.11136411 -8.74531388 -6.52729949 0 0 Z " fill="#FDFDFD" transform="translate(591.15625,106.234375)"/>
<path d="M0 0 C4.87044096 3.87194509 8.53847908 9.24618496 9.71484375 15.36328125 C10.11392672 21.72258165 10.11159736 26.37139722 7.71484375 32.36328125 C-1.52515625 32.36328125 -10.76515625 32.36328125 -20.28515625 32.36328125 C-19.29515625 35.00328125 -18.30515625 37.64328125 -17.28515625 40.36328125 C-12.52567989 41.10694943 -8.69889608 41.69832128 -4.03515625 40.36328125 C1.35867937 38.92492509 1.35867937 38.92492509 4.71484375 40.36328125 C7.39932579 43.69574171 8.07809724 46.12532391 7.71484375 50.36328125 C-1.40811166 56.18644428 -11.8906812 58.1631017 -22.6171875 55.86328125 C-28.8386605 53.76963068 -33.51517352 50.22994193 -36.59765625 44.36328125 C-40.86319722 35.43624192 -40.68149415 23.19283545 -38.4140625 13.7265625 C-35.40616169 5.86657251 -31.24037657 1.03237029 -23.66015625 -2.57421875 C-16.21085907 -5.00900849 -6.76571485 -3.93355514 0 0 Z M-19.16015625 11.48828125 C-20.79965201 13.85633968 -20.79965201 13.85633968 -20.28515625 19.36328125 C-16.32515625 19.36328125 -12.36515625 19.36328125 -8.28515625 19.36328125 C-6.95156101 15.63015744 -6.95156101 15.63015744 -8.09765625 13.17578125 C-9.16637612 11.21305932 -9.16637612 11.21305932 -11.28515625 10.36328125 C-15.41580251 9.98712999 -15.41580251 9.98712999 -19.16015625 11.48828125 Z " fill="#FDFEFD" transform="translate(389.28515625,120.63671875)"/>
<path d="M0 0 C6.49603988 -0.10129515 12.99187668 -0.17142075 19.48852539 -0.21972656 C21.69921479 -0.23986064 23.90985082 -0.26717015 26.12036133 -0.30175781 C29.29521846 -0.35019629 32.46937248 -0.37295072 35.64453125 -0.390625 C36.63524124 -0.41127014 37.62595123 -0.43191528 38.64668274 -0.45318604 C39.56741074 -0.45348816 40.48813873 -0.45379028 41.43676758 -0.45410156 C42.2472908 -0.46298401 43.05781403 -0.47186646 43.89289856 -0.48101807 C46 0 46 0 47.74662781 1.894104 C49.8498102 5.42783757 50.11366509 8.93647313 50 13 C48.69919314 16.61335239 46.92062545 19.10731964 44.63671875 22.1953125 C40.24849166 28.32502693 37.1742553 35.18696424 34 42 C33.57203125 42.9178125 33.1440625 43.835625 32.703125 44.78125 C29.03216728 53.70450108 28.2123184 63.49559138 27 73 C23.63849548 74.12050151 21.03713274 74.13296652 17.5 74.125 C16.3553125 74.12757813 15.210625 74.13015625 14.03125 74.1328125 C11 74 11 74 8 73 C8.44030603 65.50321043 8.95163689 58.24330811 11 51 C11.25523437 50.08863281 11.51046875 49.17726562 11.7734375 48.23828125 C15.35091268 36.5426893 21.08781955 26.30703293 29 17 C26.18175808 15.59087904 23.82748718 15.88816447 20.6796875 15.90234375 C18.79443359 15.90717773 18.79443359 15.90717773 16.87109375 15.91210938 C15.55238281 15.92048828 14.23367188 15.92886719 12.875 15.9375 C11.53515789 15.94251511 10.195314 15.94707799 8.85546875 15.95117188 C5.57026794 15.96298914 2.28515603 15.97946383 -1 16 C-1.22511584 14.46069439 -1.42924045 12.91831367 -1.625 11.375 C-1.74101562 10.51648438 -1.85703125 9.65796875 -1.9765625 8.7734375 C-2.00425227 5.49681419 -1.16825813 3.04103834 0 0 Z " fill="#FDFDFD" transform="translate(492,102)"/>
<path d="M0 0 C14.01226878 -0.08303299 28.02442446 -0.13566086 42.0369072 -0.16397476 C45.05604997 -0.17114284 48.07516834 -0.18145733 51.09429932 -0.19247437 C55.89493847 -0.20915192 60.69548062 -0.2151196 65.49614716 -0.21302795 C67.28012299 -0.21374263 69.06410107 -0.21781945 70.84806061 -0.22547913 C73.30914064 -0.23529971 75.76990196 -0.23250094 78.23098755 -0.2265625 C78.94389733 -0.23218547 79.65680712 -0.23780844 80.39132023 -0.2436018 C84.98720542 -0.21487653 88.9831853 0.24730846 93.24343872 2.01635742 C95.71483909 5.80364797 95.49137123 9.71517666 95.48635864 14.14233398 C95.48825699 14.84061813 95.49015533 15.53890228 95.49211121 16.25834656 C95.49580382 18.55800753 95.48513158 20.85734966 95.47390747 23.15698242 C95.47271407 24.76495324 95.47226285 26.37292476 95.47251892 27.980896 C95.47095635 31.35002006 95.46268755 34.71903753 95.44924927 38.08813477 C95.43231466 42.38617974 95.42843363 46.68410712 95.42919445 50.98218155 C95.4289211 54.30408837 95.42341258 57.62596997 95.41619301 60.94786835 C95.41303113 62.53134724 95.4110448 64.11482897 95.4102993 65.69831085 C95.39380922 82.42583592 95.39380922 82.42583592 94.24343872 89.01635742 C93.25343872 89.51135742 93.25343872 89.51135742 92.24343872 90.01635742 C92.22797752 88.46327377 92.22797752 88.46327377 92.21220398 86.8788147 C92.11459054 77.13729004 92.01186807 67.39583099 91.90409946 57.65441322 C91.84885553 52.6458522 91.79543317 47.63728536 91.74612427 42.62866211 C91.69850242 37.79812803 91.6461604 32.96766636 91.59049797 28.13721848 C91.57006453 26.29119029 91.5513531 24.44514224 91.5343647 22.59907913 C91.51034257 20.0201624 91.48028508 17.44138321 91.44876099 14.86254883 C91.44300552 14.09362808 91.43725006 13.32470734 91.43132019 12.53248596 C91.44887894 8.64624627 91.44887894 8.64624627 90.24343872 5.01635742 C87.2202095 4.54349049 87.2202095 4.54349049 83.56764221 4.39845276 C82.55392474 4.34198888 82.55392474 4.34198888 81.51972812 4.28438431 C74.699834 3.93270849 67.88419786 3.8826734 61.05618286 3.90283203 C59.71408592 3.90311517 58.37198882 3.9029537 57.02989197 3.90238953 C53.43997155 3.9021065 49.8500856 3.90792205 46.26017308 3.91496348 C42.48860052 3.92128052 38.71702687 3.92180735 34.94544983 3.92298889 C27.82733245 3.92607787 20.70923072 3.93425794 13.59112018 3.94433838 C5.47726504 3.95557575 -2.63659091 3.96102905 -10.75045192 3.96603382 C-27.41916415 3.97644301 -44.08786071 3.99399456 -60.75656128 4.01635742 C-61.84661341 7.28651381 -61.88781247 9.68482253 -61.89700317 13.12744141 C-61.90271332 14.40618134 -61.90842346 15.68492126 -61.91430664 17.00241089 C-61.91555197 18.42242422 -61.91667707 19.84243766 -61.91769409 21.26245117 C-61.92232253 22.75554528 -61.92734722 24.2486382 -61.93273926 25.74172974 C-61.94585963 29.7994749 -61.95230708 33.85720352 -61.95674992 37.91496658 C-61.95968019 40.44859287 -61.96378483 42.98221462 -61.96825409 45.51583862 C-61.98192578 53.43891027 -61.99159501 61.36197158 -61.99545598 69.28505421 C-61.99994124 78.43932111 -62.01751209 87.59343904 -62.04645658 96.74766064 C-62.06804309 103.81947481 -62.07815857 110.89124697 -62.0794971 117.96309376 C-62.08054697 122.18914833 -62.08649366 126.41506279 -62.10431671 130.64108276 C-62.12074597 134.6137617 -62.12297817 138.5861944 -62.1141777 142.55889511 C-62.11340465 144.01862114 -62.11778519 145.47836014 -62.12763596 146.93805313 C-62.14027433 148.92708677 -62.13271666 150.91621851 -62.12405396 152.90527344 C-62.12552052 154.01951187 -62.12698708 155.13375031 -62.12849808 156.28175354 C-61.94994512 158.98664384 -61.94994512 158.98664384 -60.60367203 160.87449074 C-57.95776062 162.51016856 -55.93714647 162.39405186 -52.83529663 162.39730835 C-50.98029289 162.40999756 -50.98029289 162.40999756 -49.08781433 162.42294312 C-47.71502554 162.41711004 -46.34223805 162.41096552 -44.9694519 162.40454102 C-43.52561546 162.40860552 -42.08178213 162.41394671 -40.63795471 162.42047119 C-36.71442499 162.43416521 -32.79113152 162.42883764 -28.86759758 162.41933393 C-24.76502716 162.41174809 -20.66247721 162.41877995 -16.55990601 162.42349243 C-9.66985434 162.42895313 -2.77989909 162.42175016 4.11013794 162.4074707 C12.08034984 162.39114355 20.05033153 162.39643183 28.02053785 162.41294992 C34.85882525 162.42655587 41.69704327 162.42848883 48.53533983 162.42063391 C52.62164618 162.41595247 56.70784425 162.41534541 60.79414368 162.42524338 C64.6355335 162.43389786 68.47662599 162.42791923 72.31798363 162.41056061 C73.72932122 162.40658759 75.14068376 162.40774373 76.55201149 162.4143486 C78.47539004 162.42252118 80.39882316 162.41046509 82.32217407 162.39730835 C83.39954079 162.39617727 84.4769075 162.3950462 85.58692169 162.39388084 C88.26420214 162.22940554 88.26420214 162.22940554 90.0885973 160.64322376 C91.74117006 158.31518552 91.64273544 156.55669932 91.67581177 153.71875 C91.70550301 152.09740898 91.70550301 152.09740898 91.73579407 150.4433136 C91.74218399 149.27761337 91.74857391 148.11191315 91.75515747 146.91088867 C91.77310867 145.71654709 91.79105988 144.52220551 91.80955505 143.29167175 C91.86380905 139.47076974 91.89760301 135.64999372 91.93093872 131.82885742 C91.96409837 129.24094921 91.99858674 126.65305765 92.03445435 124.06518555 C92.11954429 117.71568914 92.18783025 111.36617673 92.24343872 105.01635742 C94.67540712 107.17264381 95.20288454 107.67086916 95.59988403 111.05297852 C95.58586548 112.90270264 95.58586548 112.90270264 95.57156372 114.78979492 C95.57018906 115.46196045 95.56881439 116.13412598 95.56739807 116.82666016 C95.55836039 119.01532031 95.52690534 121.20294474 95.49343872 123.39135742 C95.47951931 124.89086321 95.46625656 126.39037523 95.4536438 127.88989258 C95.40964296 132.26597593 95.33038393 136.64094808 95.24343872 141.01635742 C95.21225952 142.77979492 95.21225952 142.77979492 95.18045044 144.57885742 C95.11967626 147.51762673 95.03412265 150.45380659 94.93093872 153.39135742 C94.90870239 154.23875488 94.88646606 155.08615234 94.86355591 155.95922852 C94.60701185 161.47492587 94.60701185 161.47492587 93.09577179 163.72545815 C90.40811261 165.59849996 88.35296443 165.39402228 85.09439087 165.39730835 C83.80723679 165.40576782 82.5200827 165.41422729 81.19392395 165.42294312 C79.76446407 165.41711 78.33500544 165.41096548 76.9055481 165.40454102 C75.40259926 165.40860537 73.89965342 165.41394648 72.39671326 165.42047119 C68.31203471 165.43416694 64.22758306 165.42883691 60.14290047 165.41933393 C55.872167 165.411749 51.60145321 165.4187797 47.33071899 165.42349243 C40.15819809 165.42895339 32.98576979 165.42174946 25.81326294 165.4074707 C17.51586469 165.39114351 9.21868758 165.39643178 0.92129469 165.41294992 C-6.19724438 165.42655511 -13.3157168 165.4284892 -20.43426466 165.42063391 C-24.68824356 165.41595206 -28.94211845 165.41534655 -33.1960907 165.42524338 C-37.19506516 165.43389675 -41.19375398 165.42792121 -45.19269753 165.41056061 C-46.66208738 165.40658701 -48.13150119 165.40774471 -49.60088158 165.4143486 C-51.60308358 165.42251888 -53.60533799 165.41046711 -55.60751343 165.39730835 C-56.72912621 165.39617727 -57.85073898 165.3950462 -59.00634003 165.39388084 C-61.75656128 165.01635742 -61.75656128 165.01635742 -63.61397743 163.63508797 C-65.20754993 161.37742916 -65.18704556 159.73231864 -65.2638855 156.97924805 C-65.31622849 155.38518127 -65.31622849 155.38518127 -65.36962891 153.75891113 C-65.40260574 151.9836908 -65.40260574 151.9836908 -65.43624878 150.17260742 C-65.46927094 148.90759399 -65.50229309 147.64258057 -65.53631592 146.3392334 C-65.98599995 127.74333727 -65.90456258 109.1338823 -65.8835144 90.53405762 C-65.88092565 86.53427808 -65.8857714 82.53452089 -65.89035416 78.53474426 C-65.90878129 59.77096857 -65.8618728 41.00788869 -65.42962265 22.24830627 C-65.39271721 20.62958694 -65.35873818 19.01079793 -65.32785416 17.39195251 C-65.28401563 15.18368583 -65.22731202 12.9761588 -65.16622925 10.76831055 C-65.13560394 9.52988403 -65.10497864 8.29145752 -65.07342529 7.01550293 C-64.75656128 4.01635742 -64.75656128 4.01635742 -62.75656128 1.01635742 C-60.83711243 0.61763 -60.83711243 0.61763 -58.43405151 0.58398438 C-57.05832977 0.5543158 -57.05832977 0.5543158 -55.65481567 0.52404785 C-54.63522766 0.51764282 -53.61563965 0.51123779 -52.56515503 0.50463867 C-51.47716614 0.48655151 -50.38917725 0.46846436 -49.26821899 0.4498291 C-45.57686468 0.39371173 -41.88570053 0.36063368 -38.19406128 0.32885742 C-35.58313372 0.2970654 -32.97221257 0.26474336 -30.36129761 0.23193359 C-20.24112358 0.11326795 -10.12064948 0.06005589 0 0 Z " fill="#6A82E4" transform="translate(155.75656127929688,50.983642578125)"/>
<path d="M0 0 C2.82032435 3.98370815 2.37633717 9.00795361 2.37939453 13.70800781 C2.38114685 14.38678482 2.38289917 15.06556183 2.38470459 15.76490784 C2.38909023 17.99954824 2.38619539 20.23410885 2.3828125 22.46875 C2.3834868 24.03188085 2.38445787 25.5950116 2.38571167 27.15814209 C2.38718446 30.43307494 2.3850487 33.70798048 2.38037109 36.98291016 C2.37469297 41.15987974 2.37794328 45.3367848 2.38394356 49.51375198 C2.38757665 52.74300614 2.38639769 55.9722453 2.38381577 59.20149994 C2.3831531 60.74032346 2.3839516 62.27914839 2.38629532 63.81797028 C2.40566305 80.11713114 2.40566305 80.11713114 1.25 86.765625 C0.26 87.260625 0.26 87.260625 -0.75 87.765625 C-0.76030746 86.7302359 -0.77061493 85.6948468 -0.78123474 84.62808228 C-0.87884818 74.88655762 -0.98157066 65.14509856 -1.08933926 55.4036808 C-1.14458319 50.39511978 -1.19800555 45.38655293 -1.24731445 40.37792969 C-1.2949363 35.54739561 -1.34727832 30.71693394 -1.40294075 25.88648605 C-1.42337419 24.04045787 -1.44208562 22.19440981 -1.45907402 20.34834671 C-1.48309615 17.76942998 -1.51315364 15.19065078 -1.54467773 12.61181641 C-1.55331093 11.45843529 -1.55331093 11.45843529 -1.56211853 10.28175354 C-1.54455978 6.39551385 -1.54455978 6.39551385 -2.75 2.765625 C-4.87998171 2.29655449 -4.87998171 2.29655449 -7.44140625 2.1328125 C-8.85776367 2.00712891 -8.85776367 2.00712891 -10.30273438 1.87890625 C-11.79256836 1.76095703 -11.79256836 1.76095703 -13.3125 1.640625 C-14.30958984 1.55425781 -15.30667969 1.46789063 -16.33398438 1.37890625 C-18.80539988 1.16605707 -21.27723225 0.96203179 -23.75 0.765625 C-23.75 0.105625 -23.75 -0.554375 -23.75 -1.234375 C-5.07813831 -3.58190113 -5.07813831 -3.58190113 0 0 Z " fill="#6683E5" transform="translate(248.75,53.234375)"/>
<path d="M0 0 C0.99 0.33 1.98 0.66 3 1 C3 32.68 3 64.36 3 97 C2.01 97.495 2.01 97.495 1 98 C-0.03348066 92.90582947 -0.13568872 88.04373745 -0.11352539 82.87353516 C-0.11367142 81.97533051 -0.11381744 81.07712585 -0.1139679 80.15170288 C-0.11327398 77.19746443 -0.10550605 74.24328987 -0.09765625 71.2890625 C-0.09579022 69.23497553 -0.09436719 67.18088811 -0.09336853 65.12680054 C-0.08955794 59.73129031 -0.07974012 54.33580717 -0.06866455 48.94030762 C-0.05841906 43.43026089 -0.05386419 37.92020977 -0.04882812 32.41015625 C-0.03811653 21.60675896 -0.02105764 10.80338174 0 0 Z " fill="#69A4EA" transform="translate(90,92)"/>
<path d="M0 0 C3 3 3 3 3.35644531 6.08422852 C3.34709961 7.33647217 3.33775391 8.58871582 3.328125 9.87890625 C3.32661438 10.5594104 3.32510376 11.23991455 3.32354736 11.94104004 C3.31419705 14.14859346 3.28272095 16.35517962 3.25 18.5625 C3.23811517 20.06762072 3.22704791 21.57274812 3.21679688 23.07788086 C3.12604356 33.40296115 2.81092257 43.7041795 2 54 C1.67 53.34 1.34 52.68 1 52 C0.34 51.67 -0.32 51.34 -1 51 C-0.67 34.17 -0.34 17.34 0 0 Z " fill="#5D89EB" transform="translate(248,156)"/>
<path d="M0 0 C0.66 0 1.32 0 2 0 C2.02548153 6.67113423 2.0429219 13.34225576 2.05493164 20.01342773 C2.05994161 22.28003407 2.06675141 24.5466372 2.07543945 26.81323242 C2.08765172 30.0825276 2.09326182 33.35177982 2.09765625 36.62109375 C2.10281754 37.62458359 2.10797882 38.62807343 2.11329651 39.66197205 C2.11375715 45.51863384 1.9304435 51.20996203 1 57 C0.01 57.495 0.01 57.495 -1 58 C-1.20652332 38.6556492 -0.57936235 19.33313682 0 0 Z " fill="#5998F5" transform="translate(249,83)"/>
<path d="M0 0 C3 3 3 3 3.36328125 6.73046875 C3.36195348 8.21624167 3.34443101 9.70206965 3.3125 11.1875 C3.31572266 11.91775391 3.31894531 12.64800781 3.32226562 13.40039062 C3.27206828 18.55246333 2.40816992 23.04615919 1 28 C0.67 28 0.34 28 0 28 C0 18.76 0 9.52 0 0 Z " fill="#6884EA" transform="translate(248,156)"/>
<path d="M0 0 C0.33 1.32 0.66 2.64 1 4 C-11.66970387 4.18451025 -11.66970387 4.18451025 -17 3 C-17 2.34 -17 1.68 -17 1 C-5.47835991 -0.14806378 -5.47835991 -0.14806378 0 0 Z " fill="#6383F0" transform="translate(242,51)"/>
<path d="M0 0 C0.33 0.66 0.66 1.32 1 2 C1.66 2 2.32 2 3 2 C3.20488353 14.90766208 3.20488353 14.90766208 2 20 C1.34 20.33 0.68 20.66 0 21 C0 14.07 0 7.14 0 0 Z " fill="#6595EC" transform="translate(248,120)"/>
<path d="M0 0 C2.09375 -0.36328125 2.09375 -0.36328125 4.5 -0.3125 C5.69109375 -0.30669922 5.69109375 -0.30669922 6.90625 -0.30078125 C9 0 9 0 11 2 C10 3 10 3 7.27734375 3.09765625 C5.62412109 3.08025391 5.62412109 3.08025391 3.9375 3.0625 C2.83277344 3.05347656 1.72804687 3.04445312 0.58984375 3.03515625 C-0.69212891 3.01775391 -0.69212891 3.01775391 -2 3 C-1.34 2.01 -0.68 1.02 0 0 Z " fill="#5D8EF1" transform="translate(153,51)"/>
<path d="M0 0 C0.99 0.33 1.98 0.66 3 1 C3.25 8.625 3.25 8.625 1 12 C-0.26237731 9.47524538 -0.09856404 7.68799534 -0.0625 4.875 C-0.05347656 3.96492188 -0.04445313 3.05484375 -0.03515625 2.1171875 C-0.02355469 1.41851562 -0.01195313 0.71984375 0 0 Z " fill="#5EA5F2" transform="translate(90,92)"/>
<path d="M0 0 C0.33 0 0.66 0 1 0 C1 4.62 1 9.24 1 14 C0.01 13.67 -0.98 13.34 -2 13 C-1.48041715 8.62065881 -0.94324258 4.31196609 0 0 Z " fill="#6290F8" transform="translate(250,176)"/>
<path d="M0 0 C0.33 0 0.66 0 1 0 C1 4.29 1 8.58 1 13 C0.01 13.495 0.01 13.495 -1 14 C-2.51708428 4.58997722 -2.51708428 4.58997722 0 0 Z " fill="#6B92E5" transform="translate(92,176)"/>
<path d="M0 0 C1.98 0 3.96 0 6 0 C6.33 1.32 6.66 2.64 7 4 C4.36 4 1.72 4 -1 4 C-0.67 2.68 -0.34 1.36 0 0 Z " fill="#5C93E4" transform="translate(236,51)"/>
<path d="" fill="#627DED" transform="translate(0,0)"/>
</svg>
