<svg xmlns="http://www.w3.org/2000/svg" xmlns:xlink="http://www.w3.org/1999/xlink" width="500" zoomAndPan="magnify" viewBox="0 0 375 374.999991" height="500" preserveAspectRatio="xMidYMid meet" version="1.0"><defs><g/><clipPath id="c77357b7d9"><path d="M 123 96 L 236 96 L 236 209 L 123 209 Z M 123 96 " clip-rule="nonzero"/></clipPath><clipPath id="f77e1228db"><path d="M 236.898438 97.464844 L 234.234375 209.933594 L 121.765625 207.269531 L 124.429688 94.800781 Z M 236.898438 97.464844 " clip-rule="nonzero"/></clipPath><clipPath id="65a8f71704"><path d="M 235.566406 153.699219 C 236.300781 122.640625 211.71875 96.867188 180.664062 96.132812 C 149.605469 95.398438 123.832031 119.976562 123.097656 151.035156 C 122.359375 182.09375 146.941406 207.863281 178 208.601562 C 209.054688 209.335938 234.828125 184.757812 235.566406 153.699219 Z M 235.566406 153.699219 " clip-rule="nonzero"/></clipPath><clipPath id="c340efcf60"><path d="M 125 98 L 236 98 L 236 209 L 125 209 Z M 125 98 " clip-rule="nonzero"/></clipPath><clipPath id="c7cfa952ff"><path d="M 236.832031 99.878906 L 234.222656 209.933594 L 124.171875 207.324219 L 126.777344 97.273438 Z M 236.832031 99.878906 " clip-rule="nonzero"/></clipPath><clipPath id="2cf6532e67"><path d="M 235.527344 154.90625 C 236.246094 124.515625 212.195312 99.296875 181.804688 98.578125 C 151.414062 97.855469 126.195312 121.910156 125.472656 152.300781 C 124.753906 182.691406 148.808594 207.910156 179.195312 208.628906 C 209.585938 209.347656 234.808594 185.296875 235.527344 154.90625 Z M 235.527344 154.90625 " clip-rule="nonzero"/></clipPath><clipPath id="98c15ed394"><path d="M 236.832031 99.878906 L 234.222656 209.933594 L 124.171875 207.324219 L 126.777344 97.273438 Z M 236.832031 99.878906 " clip-rule="nonzero"/></clipPath><clipPath id="16570353c6"><path d="M 236.832031 99.878906 L 234.222656 209.933594 L 124.171875 207.324219 L 126.777344 97.273438 Z M 236.832031 99.878906 " clip-rule="nonzero"/></clipPath><linearGradient x1="-4.672221" gradientTransform="matrix(-0.0101842, 0.429894, -0.429894, -0.0101842, 236.830569, 99.880218)" y1="128" x2="260.672193" gradientUnits="userSpaceOnUse" y2="128" id="38b1bfaa73"><stop stop-opacity="1" stop-color="rgb(0%, 28.999329%, 67.799377%)" offset="0"/><stop stop-opacity="1" stop-color="rgb(0%, 28.999329%, 67.799377%)" offset="0.015625"/><stop stop-opacity="1" stop-color="rgb(0.239563%, 29.039001%, 67.866516%)" offset="0.0195312"/><stop stop-opacity="1" stop-color="rgb(0.480652%, 29.0802%, 67.935181%)" offset="0.0234375"/><stop stop-opacity="1" stop-color="rgb(0.802612%, 29.133606%, 68.025208%)" offset="0.0273437"/><stop stop-opacity="1" stop-color="rgb(1.124573%, 29.188538%, 68.115234%)" offset="0.03125"/><stop stop-opacity="1" stop-color="rgb(1.446533%, 29.241943%, 68.205261%)" offset="0.0351562"/><stop stop-opacity="1" stop-color="rgb(1.77002%, 29.296875%, 68.296814%)" offset="0.0390625"/><stop stop-opacity="1" stop-color="rgb(2.09198%, 29.350281%, 68.386841%)" offset="0.0429687"/><stop stop-opacity="1" stop-color="rgb(2.41394%, 29.405212%, 68.478394%)" offset="0.046875"/><stop stop-opacity="1" stop-color="rgb(2.735901%, 29.458618%, 68.56842%)" offset="0.0507812"/><stop stop-opacity="1" stop-color="rgb(3.057861%, 29.51355%, 68.659973%)" offset="0.0546875"/><stop stop-opacity="1" stop-color="rgb(3.379822%, 29.568481%, 68.75%)" offset="0.0585937"/><stop stop-opacity="1" stop-color="rgb(3.703308%, 29.623413%, 68.841553%)" offset="0.0625"/><stop stop-opacity="1" stop-color="rgb(4.025269%, 29.676819%, 68.93158%)" offset="0.0664062"/><stop stop-opacity="1" stop-color="rgb(4.347229%, 29.73175%, 69.023132%)" offset="0.0703125"/><stop stop-opacity="1" stop-color="rgb(4.669189%, 29.785156%, 69.113159%)" offset="0.0742187"/><stop stop-opacity="1" stop-color="rgb(4.992676%, 29.840088%, 69.204712%)" offset="0.078125"/><stop stop-opacity="1" stop-color="rgb(5.314636%, 29.893494%, 69.294739%)" offset="0.0820312"/><stop stop-opacity="1" stop-color="rgb(5.636597%, 29.948425%, 69.386292%)" offset="0.0859375"/><stop stop-opacity="1" stop-color="rgb(5.958557%, 30.001831%, 69.476318%)" offset="0.0898437"/><stop stop-opacity="1" stop-color="rgb(6.282043%, 30.056763%, 69.566345%)" offset="0.09375"/><stop stop-opacity="1" stop-color="rgb(6.604004%, 30.110168%, 69.656372%)" offset="0.0976562"/><stop stop-opacity="1" stop-color="rgb(6.925964%, 30.1651%, 69.747925%)" offset="0.101562"/><stop stop-opacity="1" stop-color="rgb(7.247925%, 30.218506%, 69.837952%)" offset="0.105469"/><stop stop-opacity="1" stop-color="rgb(7.569885%, 30.273438%, 69.929504%)" offset="0.109375"/><stop stop-opacity="1" stop-color="rgb(7.891846%, 30.326843%, 70.019531%)" offset="0.113281"/><stop stop-opacity="1" stop-color="rgb(8.215332%, 30.381775%, 70.111084%)" offset="0.117187"/><stop stop-opacity="1" stop-color="rgb(8.537292%, 30.435181%, 70.201111%)" offset="0.121094"/><stop stop-opacity="1" stop-color="rgb(8.859253%, 30.490112%, 70.292664%)" offset="0.125"/><stop stop-opacity="1" stop-color="rgb(9.181213%, 30.545044%, 70.38269%)" offset="0.128906"/><stop stop-opacity="1" stop-color="rgb(9.5047%, 30.599976%, 70.474243%)" offset="0.132812"/><stop stop-opacity="1" stop-color="rgb(9.82666%, 30.653381%, 70.56427%)" offset="0.136719"/><stop stop-opacity="1" stop-color="rgb(10.148621%, 30.708313%, 70.655823%)" offset="0.140625"/><stop stop-opacity="1" stop-color="rgb(10.470581%, 30.761719%, 70.74585%)" offset="0.144531"/><stop stop-opacity="1" stop-color="rgb(10.794067%, 30.81665%, 70.837402%)" offset="0.148437"/><stop stop-opacity="1" stop-color="rgb(11.116028%, 30.870056%, 70.927429%)" offset="0.152344"/><stop stop-opacity="1" stop-color="rgb(11.437988%, 30.924988%, 71.017456%)" offset="0.15625"/><stop stop-opacity="1" stop-color="rgb(11.759949%, 30.978394%, 71.107483%)" offset="0.160156"/><stop stop-opacity="1" stop-color="rgb(12.081909%, 31.033325%, 71.199036%)" offset="0.164062"/><stop stop-opacity="1" stop-color="rgb(12.40387%, 31.086731%, 71.289062%)" offset="0.167969"/><stop stop-opacity="1" stop-color="rgb(12.727356%, 31.141663%, 71.380615%)" offset="0.171875"/><stop stop-opacity="1" stop-color="rgb(13.049316%, 31.195068%, 71.470642%)" offset="0.175781"/><stop stop-opacity="1" stop-color="rgb(13.371277%, 31.25%, 71.562195%)" offset="0.179687"/><stop stop-opacity="1" stop-color="rgb(13.693237%, 31.303406%, 71.652222%)" offset="0.183594"/><stop stop-opacity="1" stop-color="rgb(14.016724%, 31.358337%, 71.743774%)" offset="0.1875"/><stop stop-opacity="1" stop-color="rgb(14.338684%, 31.411743%, 71.833801%)" offset="0.191406"/><stop stop-opacity="1" stop-color="rgb(14.660645%, 31.466675%, 71.925354%)" offset="0.195312"/><stop stop-opacity="1" stop-color="rgb(14.982605%, 31.521606%, 72.015381%)" offset="0.199219"/><stop stop-opacity="1" stop-color="rgb(15.306091%, 31.576538%, 72.106934%)" offset="0.203125"/><stop stop-opacity="1" stop-color="rgb(15.628052%, 31.629944%, 72.19696%)" offset="0.207031"/><stop stop-opacity="1" stop-color="rgb(15.950012%, 31.684875%, 72.288513%)" offset="0.210937"/><stop stop-opacity="1" stop-color="rgb(16.271973%, 31.738281%, 72.37854%)" offset="0.214844"/><stop stop-opacity="1" stop-color="rgb(16.593933%, 31.793213%, 72.468567%)" offset="0.21875"/><stop stop-opacity="1" stop-color="rgb(16.915894%, 31.846619%, 72.558594%)" offset="0.222656"/><stop stop-opacity="1" stop-color="rgb(17.23938%, 31.90155%, 72.650146%)" offset="0.226562"/><stop stop-opacity="1" stop-color="rgb(17.56134%, 31.954956%, 72.740173%)" offset="0.230469"/><stop stop-opacity="1" stop-color="rgb(17.883301%, 32.009888%, 72.831726%)" offset="0.234375"/><stop stop-opacity="1" stop-color="rgb(18.205261%, 32.063293%, 72.921753%)" offset="0.238281"/><stop stop-opacity="1" stop-color="rgb(18.528748%, 32.118225%, 73.013306%)" offset="0.242187"/><stop stop-opacity="1" stop-color="rgb(18.850708%, 32.171631%, 73.103333%)" offset="0.246094"/><stop stop-opacity="1" stop-color="rgb(19.172668%, 32.226562%, 73.194885%)" offset="0.25"/><stop stop-opacity="1" stop-color="rgb(19.494629%, 32.279968%, 73.284912%)" offset="0.253906"/><stop stop-opacity="1" stop-color="rgb(19.818115%, 32.3349%, 73.376465%)" offset="0.257812"/><stop stop-opacity="1" stop-color="rgb(20.140076%, 32.388306%, 73.466492%)" offset="0.261719"/><stop stop-opacity="1" stop-color="rgb(20.462036%, 32.443237%, 73.558044%)" offset="0.265625"/><stop stop-opacity="1" stop-color="rgb(20.783997%, 32.498169%, 73.648071%)" offset="0.269531"/><stop stop-opacity="1" stop-color="rgb(21.105957%, 32.553101%, 73.739624%)" offset="0.273437"/><stop stop-opacity="1" stop-color="rgb(21.427917%, 32.606506%, 73.829651%)" offset="0.277344"/><stop stop-opacity="1" stop-color="rgb(21.751404%, 32.661438%, 73.919678%)" offset="0.28125"/><stop stop-opacity="1" stop-color="rgb(22.073364%, 32.714844%, 74.009705%)" offset="0.285156"/><stop stop-opacity="1" stop-color="rgb(22.395325%, 32.769775%, 74.101257%)" offset="0.289062"/><stop stop-opacity="1" stop-color="rgb(22.717285%, 32.823181%, 74.191284%)" offset="0.292969"/><stop stop-opacity="1" stop-color="rgb(23.040771%, 32.878113%, 74.282837%)" offset="0.296875"/><stop stop-opacity="1" stop-color="rgb(23.362732%, 32.931519%, 74.372864%)" offset="0.300781"/><stop stop-opacity="1" stop-color="rgb(23.684692%, 32.98645%, 74.464417%)" offset="0.304687"/><stop stop-opacity="1" stop-color="rgb(24.006653%, 33.039856%, 74.554443%)" offset="0.308594"/><stop stop-opacity="1" stop-color="rgb(24.330139%, 33.094788%, 74.645996%)" offset="0.3125"/><stop stop-opacity="1" stop-color="rgb(24.6521%, 33.148193%, 74.736023%)" offset="0.316406"/><stop stop-opacity="1" stop-color="rgb(24.97406%, 33.203125%, 74.827576%)" offset="0.320312"/><stop stop-opacity="1" stop-color="rgb(25.296021%, 33.256531%, 74.917603%)" offset="0.324219"/><stop stop-opacity="1" stop-color="rgb(25.617981%, 33.311462%, 75.009155%)" offset="0.328125"/><stop stop-opacity="1" stop-color="rgb(25.939941%, 33.364868%, 75.099182%)" offset="0.332031"/><stop stop-opacity="1" stop-color="rgb(26.263428%, 33.4198%, 75.190735%)" offset="0.335937"/><stop stop-opacity="1" stop-color="rgb(26.585388%, 33.474731%, 75.280762%)" offset="0.339844"/><stop stop-opacity="1" stop-color="rgb(26.907349%, 33.529663%, 75.370789%)" offset="0.34375"/><stop stop-opacity="1" stop-color="rgb(27.229309%, 33.583069%, 75.460815%)" offset="0.347656"/><stop stop-opacity="1" stop-color="rgb(27.552795%, 33.638%, 75.552368%)" offset="0.351562"/><stop stop-opacity="1" stop-color="rgb(27.874756%, 33.691406%, 75.642395%)" offset="0.355469"/><stop stop-opacity="1" stop-color="rgb(28.196716%, 33.746338%, 75.733948%)" offset="0.359375"/><stop stop-opacity="1" stop-color="rgb(28.518677%, 33.799744%, 75.823975%)" offset="0.363281"/><stop stop-opacity="1" stop-color="rgb(28.842163%, 33.854675%, 75.915527%)" offset="0.367187"/><stop stop-opacity="1" stop-color="rgb(29.164124%, 33.908081%, 76.005554%)" offset="0.371094"/><stop stop-opacity="1" stop-color="rgb(29.486084%, 33.963013%, 76.097107%)" offset="0.375"/><stop stop-opacity="1" stop-color="rgb(29.808044%, 34.016418%, 76.187134%)" offset="0.378906"/><stop stop-opacity="1" stop-color="rgb(30.130005%, 34.07135%, 76.278687%)" offset="0.382812"/><stop stop-opacity="1" stop-color="rgb(30.451965%, 34.124756%, 76.368713%)" offset="0.386719"/><stop stop-opacity="1" stop-color="rgb(30.775452%, 34.179688%, 76.460266%)" offset="0.390625"/><stop stop-opacity="1" stop-color="rgb(31.097412%, 34.233093%, 76.550293%)" offset="0.394531"/><stop stop-opacity="1" stop-color="rgb(31.419373%, 34.288025%, 76.641846%)" offset="0.398437"/><stop stop-opacity="1" stop-color="rgb(31.741333%, 34.342957%, 76.731873%)" offset="0.402344"/><stop stop-opacity="1" stop-color="rgb(32.064819%, 34.397888%, 76.821899%)" offset="0.40625"/><stop stop-opacity="1" stop-color="rgb(32.38678%, 34.451294%, 76.911926%)" offset="0.410156"/><stop stop-opacity="1" stop-color="rgb(32.70874%, 34.506226%, 77.003479%)" offset="0.414062"/><stop stop-opacity="1" stop-color="rgb(33.030701%, 34.559631%, 77.093506%)" offset="0.417969"/><stop stop-opacity="1" stop-color="rgb(33.354187%, 34.614563%, 77.185059%)" offset="0.421875"/><stop stop-opacity="1" stop-color="rgb(33.676147%, 34.667969%, 77.275085%)" offset="0.425781"/><stop stop-opacity="1" stop-color="rgb(33.998108%, 34.7229%, 77.366638%)" offset="0.429687"/><stop stop-opacity="1" stop-color="rgb(34.320068%, 34.776306%, 77.456665%)" offset="0.433594"/><stop stop-opacity="1" stop-color="rgb(34.642029%, 34.831238%, 77.548218%)" offset="0.4375"/><stop stop-opacity="1" stop-color="rgb(34.963989%, 34.884644%, 77.638245%)" offset="0.441406"/><stop stop-opacity="1" stop-color="rgb(35.287476%, 34.939575%, 77.729797%)" offset="0.445312"/><stop stop-opacity="1" stop-color="rgb(35.609436%, 34.992981%, 77.819824%)" offset="0.449219"/><stop stop-opacity="1" stop-color="rgb(35.931396%, 35.047913%, 77.911377%)" offset="0.453125"/><stop stop-opacity="1" stop-color="rgb(36.253357%, 35.101318%, 78.001404%)" offset="0.457031"/><stop stop-opacity="1" stop-color="rgb(36.576843%, 35.15625%, 78.092957%)" offset="0.460937"/><stop stop-opacity="1" stop-color="rgb(36.898804%, 35.209656%, 78.182983%)" offset="0.464844"/><stop stop-opacity="1" stop-color="rgb(37.220764%, 35.264587%, 78.27301%)" offset="0.46875"/><stop stop-opacity="1" stop-color="rgb(37.542725%, 35.319519%, 78.363037%)" offset="0.472656"/><stop stop-opacity="1" stop-color="rgb(37.866211%, 35.374451%, 78.45459%)" offset="0.476562"/><stop stop-opacity="1" stop-color="rgb(38.188171%, 35.427856%, 78.544617%)" offset="0.480469"/><stop stop-opacity="1" stop-color="rgb(38.510132%, 35.482788%, 78.636169%)" offset="0.484375"/><stop stop-opacity="1" stop-color="rgb(38.832092%, 35.536194%, 78.726196%)" offset="0.488281"/><stop stop-opacity="1" stop-color="rgb(39.154053%, 35.591125%, 78.817749%)" offset="0.492187"/><stop stop-opacity="1" stop-color="rgb(39.476013%, 35.644531%, 78.907776%)" offset="0.496094"/><stop stop-opacity="1" stop-color="rgb(39.7995%, 35.699463%, 78.999329%)" offset="0.5"/><stop stop-opacity="1" stop-color="rgb(40.12146%, 35.752869%, 79.089355%)" offset="0.503906"/><stop stop-opacity="1" stop-color="rgb(40.44342%, 35.8078%, 79.180908%)" offset="0.507812"/><stop stop-opacity="1" stop-color="rgb(40.765381%, 35.861206%, 79.270935%)" offset="0.511719"/><stop stop-opacity="1" stop-color="rgb(41.088867%, 35.916138%, 79.362488%)" offset="0.515625"/><stop stop-opacity="1" stop-color="rgb(41.410828%, 35.969543%, 79.452515%)" offset="0.519531"/><stop stop-opacity="1" stop-color="rgb(41.732788%, 36.024475%, 79.544067%)" offset="0.523437"/><stop stop-opacity="1" stop-color="rgb(42.054749%, 36.077881%, 79.634094%)" offset="0.527344"/><stop stop-opacity="1" stop-color="rgb(42.378235%, 36.132812%, 79.724121%)" offset="0.53125"/><stop stop-opacity="1" stop-color="rgb(42.700195%, 36.186218%, 79.814148%)" offset="0.535156"/><stop stop-opacity="1" stop-color="rgb(43.022156%, 36.24115%, 79.905701%)" offset="0.539062"/><stop stop-opacity="1" stop-color="rgb(43.344116%, 36.296082%, 79.995728%)" offset="0.542969"/><stop stop-opacity="1" stop-color="rgb(43.666077%, 36.351013%, 80.08728%)" offset="0.546875"/><stop stop-opacity="1" stop-color="rgb(43.988037%, 36.404419%, 80.177307%)" offset="0.550781"/><stop stop-opacity="1" stop-color="rgb(44.311523%, 36.459351%, 80.26886%)" offset="0.554687"/><stop stop-opacity="1" stop-color="rgb(44.633484%, 36.512756%, 80.358887%)" offset="0.558594"/><stop stop-opacity="1" stop-color="rgb(44.955444%, 36.567688%, 80.450439%)" offset="0.5625"/><stop stop-opacity="1" stop-color="rgb(45.277405%, 36.621094%, 80.540466%)" offset="0.566406"/><stop stop-opacity="1" stop-color="rgb(45.600891%, 36.676025%, 80.632019%)" offset="0.570312"/><stop stop-opacity="1" stop-color="rgb(45.922852%, 36.729431%, 80.722046%)" offset="0.574219"/><stop stop-opacity="1" stop-color="rgb(46.244812%, 36.784363%, 80.813599%)" offset="0.578125"/><stop stop-opacity="1" stop-color="rgb(46.566772%, 36.837769%, 80.903625%)" offset="0.582031"/><stop stop-opacity="1" stop-color="rgb(46.890259%, 36.8927%, 80.995178%)" offset="0.585937"/><stop stop-opacity="1" stop-color="rgb(47.212219%, 36.946106%, 81.085205%)" offset="0.589844"/><stop stop-opacity="1" stop-color="rgb(47.53418%, 37.001038%, 81.175232%)" offset="0.59375"/><stop stop-opacity="1" stop-color="rgb(47.85614%, 37.054443%, 81.265259%)" offset="0.597656"/><stop stop-opacity="1" stop-color="rgb(48.178101%, 37.109375%, 81.356812%)" offset="0.601562"/><stop stop-opacity="1" stop-color="rgb(48.500061%, 37.162781%, 81.446838%)" offset="0.605469"/><stop stop-opacity="1" stop-color="rgb(48.823547%, 37.217712%, 81.538391%)" offset="0.609375"/><stop stop-opacity="1" stop-color="rgb(49.145508%, 37.272644%, 81.628418%)" offset="0.613281"/><stop stop-opacity="1" stop-color="rgb(49.467468%, 37.327576%, 81.719971%)" offset="0.617187"/><stop stop-opacity="1" stop-color="rgb(49.789429%, 37.380981%, 81.809998%)" offset="0.621094"/><stop stop-opacity="1" stop-color="rgb(50.112915%, 37.435913%, 81.90155%)" offset="0.625"/><stop stop-opacity="1" stop-color="rgb(50.434875%, 37.489319%, 81.991577%)" offset="0.628906"/><stop stop-opacity="1" stop-color="rgb(50.756836%, 37.54425%, 82.08313%)" offset="0.632812"/><stop stop-opacity="1" stop-color="rgb(51.078796%, 37.597656%, 82.173157%)" offset="0.636719"/><stop stop-opacity="1" stop-color="rgb(51.402283%, 37.652588%, 82.264709%)" offset="0.640625"/><stop stop-opacity="1" stop-color="rgb(51.724243%, 37.705994%, 82.354736%)" offset="0.644531"/><stop stop-opacity="1" stop-color="rgb(52.046204%, 37.760925%, 82.446289%)" offset="0.648437"/><stop stop-opacity="1" stop-color="rgb(52.368164%, 37.814331%, 82.536316%)" offset="0.652344"/><stop stop-opacity="1" stop-color="rgb(52.690125%, 37.869263%, 82.626343%)" offset="0.65625"/><stop stop-opacity="1" stop-color="rgb(53.012085%, 37.922668%, 82.71637%)" offset="0.660156"/><stop stop-opacity="1" stop-color="rgb(53.335571%, 37.9776%, 82.807922%)" offset="0.664062"/><stop stop-opacity="1" stop-color="rgb(53.657532%, 38.031006%, 82.897949%)" offset="0.667969"/><stop stop-opacity="1" stop-color="rgb(53.979492%, 38.085938%, 82.989502%)" offset="0.671875"/><stop stop-opacity="1" stop-color="rgb(54.301453%, 38.139343%, 83.079529%)" offset="0.675781"/><stop stop-opacity="1" stop-color="rgb(54.624939%, 38.194275%, 83.171082%)" offset="0.679687"/><stop stop-opacity="1" stop-color="rgb(54.946899%, 38.249207%, 83.261108%)" offset="0.683594"/><stop stop-opacity="1" stop-color="rgb(55.26886%, 38.304138%, 83.352661%)" offset="0.6875"/><stop stop-opacity="1" stop-color="rgb(55.59082%, 38.357544%, 83.442688%)" offset="0.691406"/><stop stop-opacity="1" stop-color="rgb(55.914307%, 38.412476%, 83.534241%)" offset="0.695312"/><stop stop-opacity="1" stop-color="rgb(56.236267%, 38.465881%, 83.624268%)" offset="0.699219"/><stop stop-opacity="1" stop-color="rgb(56.558228%, 38.520813%, 83.71582%)" offset="0.703125"/><stop stop-opacity="1" stop-color="rgb(56.880188%, 38.574219%, 83.805847%)" offset="0.707031"/><stop stop-opacity="1" stop-color="rgb(57.202148%, 38.62915%, 83.8974%)" offset="0.710937"/><stop stop-opacity="1" stop-color="rgb(57.524109%, 38.682556%, 83.987427%)" offset="0.714844"/><stop stop-opacity="1" stop-color="rgb(57.847595%, 38.737488%, 84.077454%)" offset="0.71875"/><stop stop-opacity="1" stop-color="rgb(58.169556%, 38.790894%, 84.16748%)" offset="0.722656"/><stop stop-opacity="1" stop-color="rgb(58.491516%, 38.845825%, 84.259033%)" offset="0.726562"/><stop stop-opacity="1" stop-color="rgb(58.813477%, 38.899231%, 84.34906%)" offset="0.730469"/><stop stop-opacity="1" stop-color="rgb(59.136963%, 38.954163%, 84.440613%)" offset="0.734375"/><stop stop-opacity="1" stop-color="rgb(59.458923%, 39.007568%, 84.53064%)" offset="0.738281"/><stop stop-opacity="1" stop-color="rgb(59.780884%, 39.0625%, 84.622192%)" offset="0.742187"/><stop stop-opacity="1" stop-color="rgb(60.102844%, 39.115906%, 84.712219%)" offset="0.746094"/><stop stop-opacity="1" stop-color="rgb(60.426331%, 39.170837%, 84.803772%)" offset="0.75"/><stop stop-opacity="1" stop-color="rgb(60.748291%, 39.225769%, 84.893799%)" offset="0.753906"/><stop stop-opacity="1" stop-color="rgb(61.070251%, 39.280701%, 84.985352%)" offset="0.757812"/><stop stop-opacity="1" stop-color="rgb(61.392212%, 39.334106%, 85.075378%)" offset="0.761719"/><stop stop-opacity="1" stop-color="rgb(61.714172%, 39.389038%, 85.166931%)" offset="0.765625"/><stop stop-opacity="1" stop-color="rgb(62.036133%, 39.442444%, 85.256958%)" offset="0.769531"/><stop stop-opacity="1" stop-color="rgb(62.359619%, 39.497375%, 85.348511%)" offset="0.773437"/><stop stop-opacity="1" stop-color="rgb(62.68158%, 39.550781%, 85.438538%)" offset="0.777344"/><stop stop-opacity="1" stop-color="rgb(63.00354%, 39.605713%, 85.528564%)" offset="0.78125"/><stop stop-opacity="1" stop-color="rgb(63.3255%, 39.659119%, 85.618591%)" offset="0.785156"/><stop stop-opacity="1" stop-color="rgb(63.648987%, 39.71405%, 85.710144%)" offset="0.789062"/><stop stop-opacity="1" stop-color="rgb(63.970947%, 39.767456%, 85.800171%)" offset="0.792969"/><stop stop-opacity="1" stop-color="rgb(64.292908%, 39.822388%, 85.891724%)" offset="0.796875"/><stop stop-opacity="1" stop-color="rgb(64.614868%, 39.875793%, 85.98175%)" offset="0.800781"/><stop stop-opacity="1" stop-color="rgb(64.938354%, 39.930725%, 86.073303%)" offset="0.804687"/><stop stop-opacity="1" stop-color="rgb(65.260315%, 39.984131%, 86.16333%)" offset="0.808594"/><stop stop-opacity="1" stop-color="rgb(65.582275%, 40.039062%, 86.254883%)" offset="0.8125"/><stop stop-opacity="1" stop-color="rgb(65.904236%, 40.092468%, 86.34491%)" offset="0.816406"/><stop stop-opacity="1" stop-color="rgb(66.226196%, 40.1474%, 86.436462%)" offset="0.820312"/><stop stop-opacity="1" stop-color="rgb(66.548157%, 40.202332%, 86.526489%)" offset="0.824219"/><stop stop-opacity="1" stop-color="rgb(66.871643%, 40.257263%, 86.618042%)" offset="0.828125"/><stop stop-opacity="1" stop-color="rgb(67.193604%, 40.310669%, 86.708069%)" offset="0.832031"/><stop stop-opacity="1" stop-color="rgb(67.515564%, 40.365601%, 86.799622%)" offset="0.835937"/><stop stop-opacity="1" stop-color="rgb(67.837524%, 40.419006%, 86.889648%)" offset="0.839844"/><stop stop-opacity="1" stop-color="rgb(68.161011%, 40.473938%, 86.979675%)" offset="0.84375"/><stop stop-opacity="1" stop-color="rgb(68.482971%, 40.527344%, 87.069702%)" offset="0.847656"/><stop stop-opacity="1" stop-color="rgb(68.804932%, 40.582275%, 87.161255%)" offset="0.851562"/><stop stop-opacity="1" stop-color="rgb(69.126892%, 40.635681%, 87.251282%)" offset="0.855469"/><stop stop-opacity="1" stop-color="rgb(69.450378%, 40.690613%, 87.342834%)" offset="0.859375"/><stop stop-opacity="1" stop-color="rgb(69.772339%, 40.744019%, 87.432861%)" offset="0.863281"/><stop stop-opacity="1" stop-color="rgb(70.094299%, 40.79895%, 87.524414%)" offset="0.867187"/><stop stop-opacity="1" stop-color="rgb(70.41626%, 40.852356%, 87.614441%)" offset="0.871094"/><stop stop-opacity="1" stop-color="rgb(70.73822%, 40.907288%, 87.705994%)" offset="0.875"/><stop stop-opacity="1" stop-color="rgb(71.060181%, 40.960693%, 87.796021%)" offset="0.878906"/><stop stop-opacity="1" stop-color="rgb(71.383667%, 41.015625%, 87.887573%)" offset="0.882812"/><stop stop-opacity="1" stop-color="rgb(71.705627%, 41.069031%, 87.9776%)" offset="0.886719"/><stop stop-opacity="1" stop-color="rgb(72.027588%, 41.123962%, 88.069153%)" offset="0.890625"/><stop stop-opacity="1" stop-color="rgb(72.349548%, 41.178894%, 88.15918%)" offset="0.894531"/><stop stop-opacity="1" stop-color="rgb(72.673035%, 41.233826%, 88.250732%)" offset="0.898437"/><stop stop-opacity="1" stop-color="rgb(72.994995%, 41.287231%, 88.340759%)" offset="0.902344"/><stop stop-opacity="1" stop-color="rgb(73.316956%, 41.342163%, 88.430786%)" offset="0.90625"/><stop stop-opacity="1" stop-color="rgb(73.638916%, 41.395569%, 88.520813%)" offset="0.910156"/><stop stop-opacity="1" stop-color="rgb(73.962402%, 41.4505%, 88.612366%)" offset="0.914062"/><stop stop-opacity="1" stop-color="rgb(74.284363%, 41.503906%, 88.702393%)" offset="0.917969"/><stop stop-opacity="1" stop-color="rgb(74.606323%, 41.558838%, 88.793945%)" offset="0.921875"/><stop stop-opacity="1" stop-color="rgb(74.928284%, 41.612244%, 88.883972%)" offset="0.925781"/><stop stop-opacity="1" stop-color="rgb(75.250244%, 41.667175%, 88.975525%)" offset="0.929687"/><stop stop-opacity="1" stop-color="rgb(75.572205%, 41.720581%, 89.065552%)" offset="0.933594"/><stop stop-opacity="1" stop-color="rgb(75.895691%, 41.775513%, 89.157104%)" offset="0.9375"/><stop stop-opacity="1" stop-color="rgb(76.217651%, 41.828918%, 89.247131%)" offset="0.941406"/><stop stop-opacity="1" stop-color="rgb(76.539612%, 41.88385%, 89.338684%)" offset="0.945312"/><stop stop-opacity="1" stop-color="rgb(76.861572%, 41.937256%, 89.428711%)" offset="0.949219"/><stop stop-opacity="1" stop-color="rgb(77.185059%, 41.992188%, 89.520264%)" offset="0.953125"/><stop stop-opacity="1" stop-color="rgb(77.507019%, 42.045593%, 89.610291%)" offset="0.957031"/><stop stop-opacity="1" stop-color="rgb(77.828979%, 42.100525%, 89.701843%)" offset="0.960937"/><stop stop-opacity="1" stop-color="rgb(78.15094%, 42.155457%, 89.79187%)" offset="0.964844"/><stop stop-opacity="1" stop-color="rgb(78.474426%, 42.210388%, 89.881897%)" offset="0.96875"/><stop stop-opacity="1" stop-color="rgb(78.796387%, 42.263794%, 89.971924%)" offset="0.972656"/><stop stop-opacity="1" stop-color="rgb(79.118347%, 42.318726%, 90.063477%)" offset="0.976563"/><stop stop-opacity="1" stop-color="rgb(79.35791%, 42.358398%, 90.130615%)" offset="0.980469"/><stop stop-opacity="1" stop-color="rgb(79.598999%, 42.399597%, 90.19928%)" offset="0.984375"/><stop stop-opacity="1" stop-color="rgb(79.598999%, 42.399597%, 90.19928%)" offset="1"/></linearGradient><clipPath id="1c870f3485"><path d="M 112 136 L 156 136 L 156 167 L 112 167 Z M 112 136 " clip-rule="nonzero"/></clipPath><clipPath id="390ecf3259"><path d="M 196.796875 143.949219 L 191.402344 178.785156 L 111.355469 166.390625 L 116.75 131.554688 Z M 196.796875 143.949219 " clip-rule="nonzero"/></clipPath><clipPath id="5e6d255637"><path d="M 196.796875 143.949219 L 191.402344 178.785156 L 111.355469 166.390625 L 116.75 131.554688 Z M 196.796875 143.949219 " clip-rule="nonzero"/></clipPath><clipPath id="ae8950b03e"><path d="M 145 136 L 192 136 L 192 176 L 145 176 Z M 145 136 " clip-rule="nonzero"/></clipPath><clipPath id="232b7eed6b"><path d="M 196.796875 143.949219 L 191.402344 178.785156 L 111.355469 166.390625 L 116.75 131.554688 Z M 196.796875 143.949219 " clip-rule="nonzero"/></clipPath><clipPath id="546bc942fe"><path d="M 196.796875 143.949219 L 191.402344 178.785156 L 111.355469 166.390625 L 116.75 131.554688 Z M 196.796875 143.949219 " clip-rule="nonzero"/></clipPath><clipPath id="e4187eacab"><path d="M 203 137 L 248 137 L 248 170 L 203 170 Z M 203 137 " clip-rule="nonzero"/></clipPath><clipPath id="08208bb93d"><path d="M 160.078125 161.582031 L 165.558594 125.246094 L 249.359375 137.878906 L 243.882812 174.21875 Z M 160.078125 161.582031 " clip-rule="nonzero"/></clipPath><clipPath id="722fe5022a"><path d="M 160.078125 161.582031 L 165.558594 125.246094 L 249.359375 137.878906 L 243.882812 174.21875 Z M 160.078125 161.582031 " clip-rule="nonzero"/></clipPath><clipPath id="62ec611150"><path d="M 165 128 L 214 128 L 214 170 L 165 170 Z M 165 128 " clip-rule="nonzero"/></clipPath><clipPath id="ddfbbe7849"><path d="M 160.078125 161.582031 L 165.558594 125.246094 L 249.359375 137.878906 L 243.882812 174.21875 Z M 160.078125 161.582031 " clip-rule="nonzero"/></clipPath><clipPath id="66986f772e"><path d="M 160.078125 161.582031 L 165.558594 125.246094 L 249.359375 137.878906 L 243.882812 174.21875 Z M 160.078125 161.582031 " clip-rule="nonzero"/></clipPath></defs><rect x="-37.5" width="450" fill="#ffffff" y="-37.499999" height="449.999989" fill-opacity="1"/><rect x="-37.5" width="450" fill="#051517" y="-37.499999" height="449.999989" fill-opacity="1"/><g clip-path="url(#c77357b7d9)"><g clip-path="url(#f77e1228db)"><g clip-path="url(#65a8f71704)"><path fill="#000000" d="M 236.898438 97.464844 L 234.234375 209.933594 L 121.765625 207.269531 L 124.429688 94.800781 Z M 236.898438 97.464844 " fill-opacity="1" fill-rule="nonzero"/></g></g></g><g clip-path="url(#c340efcf60)"><g clip-path="url(#c7cfa952ff)"><g clip-path="url(#2cf6532e67)"><g clip-path="url(#98c15ed394)"><g clip-path="url(#16570353c6)"><path fill="url(#38b1bfaa73)" d="M 238.886719 97.917969 L 124.816406 95.21875 L 122.113281 209.285156 L 236.183594 211.988281 Z M 238.886719 97.917969 " fill-rule="nonzero"/></g></g></g></g></g><g clip-path="url(#1c870f3485)"><g clip-path="url(#390ecf3259)"><g clip-path="url(#5e6d255637)"><path fill="#ffbd59" d="M 112.972656 160.261719 L 145.957031 136.121094 L 155.082031 148.589844 L 134.566406 163.605469 C 127.6875 168.640625 118.007812 167.140625 112.972656 160.261719 Z M 112.972656 160.261719 " fill-opacity="1" fill-rule="nonzero"/></g></g></g><g clip-path="url(#ae8950b03e)"><g clip-path="url(#232b7eed6b)"><g clip-path="url(#546bc942fe)"><path fill="#ffffff" d="M 170.097656 169.105469 L 145.957031 136.121094 L 167.550781 139.464844 L 191.691406 172.449219 C 184.808594 177.507812 175.128906 176.007812 170.097656 169.105469 Z M 170.097656 169.105469 " fill-opacity="1" fill-rule="nonzero"/></g></g></g><g clip-path="url(#e4187eacab)"><g clip-path="url(#08208bb93d)"><g clip-path="url(#722fe5022a)"><path fill="#ffbd59" d="M 247.34375 144.246094 L 213.078125 169.53125 L 203.519531 156.578125 L 224.832031 140.851562 C 231.980469 135.578125 242.066406 137.097656 247.34375 144.246094 Z M 247.34375 144.246094 " fill-opacity="1" fill-rule="nonzero"/></g></g></g><g clip-path="url(#62ec611150)"><g clip-path="url(#ddfbbe7849)"><g clip-path="url(#66986f772e)"><path fill="#ffffff" d="M 187.796875 135.265625 L 213.078125 169.53125 L 190.570312 166.136719 L 165.285156 131.871094 C 172.4375 126.574219 182.523438 128.097656 187.796875 135.265625 Z M 187.796875 135.265625 " fill-opacity="1" fill-rule="nonzero"/></g></g></g><g fill="#ffffff" fill-opacity="1"><g transform="translate(81.013871, 228.762803)"><g><path d="M 3.9375 -6.390625 L 0.65625 -6.390625 L 0.65625 -8.046875 L 6.109375 -8.046875 L 6.109375 -7.140625 L 2.8125 0 L 0.953125 0 Z M 3.9375 -6.390625 "/></g></g></g><g fill="#ffffff" fill-opacity="1"><g transform="translate(89.755456, 228.762803)"><g><path d="M 0.6875 -1.25 C 0.6875 -1.570312 0.734375 -1.867188 0.828125 -2.140625 C 0.921875 -2.410156 1.0625 -2.660156 1.25 -2.890625 C 1.4375 -3.117188 1.664062 -3.335938 1.9375 -3.546875 C 2.207031 -3.753906 2.519531 -3.953125 2.875 -4.140625 C 3.164062 -4.304688 3.414062 -4.457031 3.625 -4.59375 C 3.832031 -4.726562 4 -4.859375 4.125 -4.984375 C 4.257812 -5.117188 4.351562 -5.25 4.40625 -5.375 C 4.46875 -5.5 4.5 -5.628906 4.5 -5.765625 C 4.5 -6.023438 4.398438 -6.234375 4.203125 -6.390625 C 4.015625 -6.554688 3.765625 -6.640625 3.453125 -6.640625 C 2.765625 -6.640625 2.3125 -6.234375 2.09375 -5.421875 L 0.546875 -5.859375 C 0.742188 -6.617188 1.09375 -7.195312 1.59375 -7.59375 C 2.09375 -8 2.71875 -8.203125 3.46875 -8.203125 C 3.875 -8.203125 4.242188 -8.140625 4.578125 -8.015625 C 4.921875 -7.898438 5.21875 -7.738281 5.46875 -7.53125 C 5.71875 -7.320312 5.910156 -7.066406 6.046875 -6.765625 C 6.179688 -6.472656 6.25 -6.144531 6.25 -5.78125 C 6.25 -5.25 6.070312 -4.765625 5.71875 -4.328125 C 5.375 -3.890625 4.796875 -3.441406 3.984375 -2.984375 C 3.492188 -2.703125 3.113281 -2.457031 2.84375 -2.25 C 2.582031 -2.039062 2.453125 -1.835938 2.453125 -1.640625 L 6.25 -1.640625 L 6.25 0 L 0.6875 0 Z M 0.6875 -1.25 "/></g></g></g><g fill="#ffffff" fill-opacity="1"><g transform="translate(98.760781, 228.762803)"><g><path d="M 0.484375 -3.859375 L 3.296875 -3.859375 L 3.296875 -2.375 L 0.484375 -2.375 Z M 0.484375 -3.859375 "/></g></g></g><g fill="#ffffff" fill-opacity="1"><g transform="translate(104.757054, 228.762803)"><g><path d="M 2.578125 -6.390625 L 0.234375 -6.390625 L 0.234375 -8.046875 L 6.671875 -8.046875 L 6.671875 -6.390625 L 4.328125 -6.390625 L 4.328125 0 L 2.578125 0 Z M 2.578125 -6.390625 "/></g></g></g><g fill="#ffffff" fill-opacity="1"><g transform="translate(113.882256, 228.762803)"><g><path d="M 0.90625 -8.046875 L 2.65625 -8.046875 L 2.65625 -4.890625 L 5.78125 -4.890625 L 5.78125 -8.046875 L 7.53125 -8.046875 L 7.53125 0 L 5.78125 0 L 5.78125 -3.25 L 2.65625 -3.25 L 2.65625 0 L 0.90625 0 Z M 0.90625 -8.046875 "/></g></g></g><g fill="#ffffff" fill-opacity="1"><g transform="translate(124.529959, 228.762803)"><g><path d="M 0.90625 -8.046875 L 5.5 -8.046875 L 5.5 -6.390625 L 2.65625 -6.390625 L 2.65625 -4.921875 L 4.734375 -4.921875 L 4.734375 -3.28125 L 2.65625 -3.28125 L 2.65625 -1.640625 L 5.5625 -1.640625 L 5.5625 0 L 0.90625 0 Z M 0.90625 -8.046875 "/></g></g></g><g fill="#ffffff" fill-opacity="1"><g transform="translate(132.89991, 228.762803)"><g/></g></g><g fill="#ffffff" fill-opacity="1"><g transform="translate(137.757303, 228.762803)"><g><path d="M 0.90625 -8.046875 L 3.421875 -8.046875 C 3.835938 -8.046875 4.222656 -7.976562 4.578125 -7.84375 C 4.929688 -7.71875 5.234375 -7.535156 5.484375 -7.296875 C 5.742188 -7.066406 5.945312 -6.789062 6.09375 -6.46875 C 6.238281 -6.15625 6.3125 -5.8125 6.3125 -5.4375 C 6.3125 -4.957031 6.191406 -4.519531 5.953125 -4.125 C 5.722656 -3.738281 5.40625 -3.441406 5 -3.234375 L 6.890625 0 L 4.84375 0 L 3.28125 -2.8125 L 2.65625 -2.8125 L 2.65625 0 L 0.90625 0 Z M 3.34375 -4.375 C 3.71875 -4.375 4.015625 -4.46875 4.234375 -4.65625 C 4.453125 -4.84375 4.5625 -5.097656 4.5625 -5.421875 C 4.5625 -5.753906 4.445312 -6 4.21875 -6.15625 C 4 -6.3125 3.707031 -6.390625 3.34375 -6.390625 L 2.65625 -6.390625 L 2.65625 -4.375 Z M 3.34375 -4.375 "/></g></g></g><g fill="#ffffff" fill-opacity="1"><g transform="translate(147.038352, 228.762803)"><g><path d="M 4.109375 0.171875 C 3.628906 0.171875 3.191406 0.0859375 2.796875 -0.078125 C 2.398438 -0.253906 2.054688 -0.488281 1.765625 -0.78125 C 1.472656 -1.082031 1.242188 -1.441406 1.078125 -1.859375 C 0.921875 -2.285156 0.84375 -2.742188 0.84375 -3.234375 L 0.84375 -8.046875 L 2.59375 -8.046875 L 2.59375 -3.265625 C 2.59375 -2.722656 2.726562 -2.296875 3 -1.984375 C 3.28125 -1.679688 3.648438 -1.53125 4.109375 -1.53125 C 4.554688 -1.53125 4.921875 -1.679688 5.203125 -1.984375 C 5.484375 -2.296875 5.625 -2.722656 5.625 -3.265625 L 5.625 -8.046875 L 7.375 -8.046875 L 7.375 -3.234375 C 7.375 -2.742188 7.289062 -2.285156 7.125 -1.859375 C 6.96875 -1.441406 6.742188 -1.082031 6.453125 -0.78125 C 6.171875 -0.488281 5.828125 -0.253906 5.421875 -0.078125 C 5.023438 0.0859375 4.585938 0.171875 4.109375 0.171875 Z M 4.109375 0.171875 "/></g></g></g><g fill="#ffffff" fill-opacity="1"><g transform="translate(157.470276, 228.762803)"><g><path d="M 0.90625 -8.046875 L 2.65625 -8.046875 L 2.65625 -1.640625 L 5.4375 -1.640625 L 5.4375 0 L 0.90625 0 Z M 0.90625 -8.046875 "/></g></g></g><g fill="#ffffff" fill-opacity="1"><g transform="translate(165.480573, 228.762803)"><g><path d="M 0.90625 -8.046875 L 5.5 -8.046875 L 5.5 -6.390625 L 2.65625 -6.390625 L 2.65625 -4.921875 L 4.734375 -4.921875 L 4.734375 -3.28125 L 2.65625 -3.28125 L 2.65625 -1.640625 L 5.5625 -1.640625 L 5.5625 0 L 0.90625 0 Z M 0.90625 -8.046875 "/></g></g></g><g fill="#ffffff" fill-opacity="1"><g transform="translate(173.850524, 228.762803)"><g/></g></g><g fill="#ffffff" fill-opacity="1"><g transform="translate(178.707911, 228.762803)"><g><path d="M 4.578125 0.171875 C 3.984375 0.171875 3.429688 0.0625 2.921875 -0.15625 C 2.421875 -0.375 1.984375 -0.671875 1.609375 -1.046875 C 1.242188 -1.421875 0.953125 -1.859375 0.734375 -2.359375 C 0.523438 -2.867188 0.421875 -3.421875 0.421875 -4.015625 C 0.421875 -4.609375 0.523438 -5.160156 0.734375 -5.671875 C 0.953125 -6.179688 1.242188 -6.625 1.609375 -7 C 1.984375 -7.382812 2.421875 -7.679688 2.921875 -7.890625 C 3.429688 -8.097656 3.984375 -8.203125 4.578125 -8.203125 C 5.160156 -8.203125 5.703125 -8.097656 6.203125 -7.890625 C 6.710938 -7.679688 7.15625 -7.382812 7.53125 -7 C 7.90625 -6.625 8.195312 -6.179688 8.40625 -5.671875 C 8.613281 -5.160156 8.71875 -4.609375 8.71875 -4.015625 C 8.71875 -3.421875 8.613281 -2.867188 8.40625 -2.359375 C 8.195312 -1.859375 7.90625 -1.421875 7.53125 -1.046875 C 7.15625 -0.671875 6.710938 -0.375 6.203125 -0.15625 C 5.703125 0.0625 5.160156 0.171875 4.578125 0.171875 Z M 4.578125 -1.53125 C 4.910156 -1.53125 5.21875 -1.59375 5.5 -1.71875 C 5.78125 -1.84375 6.019531 -2.015625 6.21875 -2.234375 C 6.425781 -2.460938 6.585938 -2.726562 6.703125 -3.03125 C 6.816406 -3.332031 6.875 -3.660156 6.875 -4.015625 C 6.875 -4.367188 6.816406 -4.695312 6.703125 -5 C 6.585938 -5.300781 6.425781 -5.5625 6.21875 -5.78125 C 6.019531 -6.007812 5.78125 -6.1875 5.5 -6.3125 C 5.21875 -6.4375 4.910156 -6.5 4.578125 -6.5 C 4.234375 -6.5 3.921875 -6.4375 3.640625 -6.3125 C 3.367188 -6.1875 3.128906 -6.007812 2.921875 -5.78125 C 2.710938 -5.5625 2.550781 -5.300781 2.4375 -5 C 2.320312 -4.695312 2.265625 -4.367188 2.265625 -4.015625 C 2.265625 -3.660156 2.320312 -3.332031 2.4375 -3.03125 C 2.550781 -2.726562 2.710938 -2.46875 2.921875 -2.25 C 3.128906 -2.03125 3.367188 -1.851562 3.640625 -1.71875 C 3.921875 -1.59375 4.234375 -1.53125 4.578125 -1.53125 Z M 4.578125 -1.53125 "/></g></g></g><g fill="#ffffff" fill-opacity="1"><g transform="translate(190.062921, 228.762803)"><g><path d="M 0.90625 -8.046875 L 5.4375 -8.046875 L 5.4375 -6.390625 L 2.65625 -6.390625 L 2.65625 -4.578125 L 4.671875 -4.578125 L 4.671875 -2.921875 L 2.65625 -2.921875 L 2.65625 0 L 0.90625 0 Z M 0.90625 -8.046875 "/></g></g></g><g fill="#ffffff" fill-opacity="1"><g transform="translate(198.073213, 228.762803)"><g/></g></g><g fill="#ffffff" fill-opacity="1"><g transform="translate(202.9306, 228.762803)"><g><path d="M 0.90625 -8.046875 L 2.65625 -8.046875 L 2.65625 0 L 0.90625 0 Z M 0.90625 -8.046875 "/></g></g></g><g fill="#ffffff" fill-opacity="1"><g transform="translate(208.699097, 228.762803)"><g><path d="M 2.5625 -4.78125 L 2.5625 0 L 0.90625 0 L 0.90625 -8.1875 L 1.8125 -8.1875 L 6.296875 -3.25 L 6.296875 -8.046875 L 7.953125 -8.046875 L 7.953125 0.140625 L 7.046875 0.140625 Z M 2.5625 -4.78125 "/></g></g></g><g fill="#ffffff" fill-opacity="1"><g transform="translate(219.766391, 228.762803)"><g><path d="M 0.0625 -8.046875 L 1.890625 -8.046875 L 3.640625 -3.25 L 5.40625 -8.046875 L 7.21875 -8.046875 L 4.09375 0.140625 L 3.171875 0.140625 Z M 0.0625 -8.046875 "/></g></g></g><g fill="#ffffff" fill-opacity="1"><g transform="translate(229.251231, 228.762803)"><g><path d="M 0.90625 -8.046875 L 5.5 -8.046875 L 5.5 -6.390625 L 2.65625 -6.390625 L 2.65625 -4.921875 L 4.734375 -4.921875 L 4.734375 -3.28125 L 2.65625 -3.28125 L 2.65625 -1.640625 L 5.5625 -1.640625 L 5.5625 0 L 0.90625 0 Z M 0.90625 -8.046875 "/></g></g></g><g fill="#ffffff" fill-opacity="1"><g transform="translate(237.621176, 228.762803)"><g><path d="M 3.0625 0.21875 C 2.4375 0.21875 1.875 0.078125 1.375 -0.203125 C 0.882812 -0.484375 0.488281 -0.890625 0.1875 -1.421875 L 1.40625 -2.4375 C 1.820312 -1.6875 2.367188 -1.3125 3.046875 -1.3125 C 3.347656 -1.3125 3.59375 -1.382812 3.78125 -1.53125 C 3.96875 -1.6875 4.0625 -1.882812 4.0625 -2.125 C 4.0625 -2.34375 3.96875 -2.535156 3.78125 -2.703125 C 3.601562 -2.867188 3.273438 -3.054688 2.796875 -3.265625 C 2.054688 -3.585938 1.515625 -3.953125 1.171875 -4.359375 C 0.828125 -4.765625 0.65625 -5.25 0.65625 -5.8125 C 0.65625 -6.164062 0.71875 -6.488281 0.84375 -6.78125 C 0.976562 -7.070312 1.160156 -7.320312 1.390625 -7.53125 C 1.617188 -7.75 1.894531 -7.914062 2.21875 -8.03125 C 2.539062 -8.144531 2.894531 -8.203125 3.28125 -8.203125 C 4.289062 -8.203125 5.148438 -7.769531 5.859375 -6.90625 L 4.6875 -5.84375 C 4.46875 -6.132812 4.242188 -6.347656 4.015625 -6.484375 C 3.796875 -6.628906 3.550781 -6.703125 3.28125 -6.703125 C 3.007812 -6.703125 2.796875 -6.632812 2.640625 -6.5 C 2.484375 -6.375 2.40625 -6.195312 2.40625 -5.96875 C 2.40625 -5.726562 2.507812 -5.523438 2.71875 -5.359375 C 2.925781 -5.203125 3.238281 -5.03125 3.65625 -4.84375 C 4.414062 -4.507812 4.960938 -4.132812 5.296875 -3.71875 C 5.640625 -3.3125 5.8125 -2.828125 5.8125 -2.265625 C 5.8125 -1.898438 5.742188 -1.5625 5.609375 -1.25 C 5.472656 -0.945312 5.285156 -0.6875 5.046875 -0.46875 C 4.804688 -0.25 4.515625 -0.0820312 4.171875 0.03125 C 3.835938 0.15625 3.46875 0.21875 3.0625 0.21875 Z M 3.0625 0.21875 "/></g></g></g><g fill="#ffffff" fill-opacity="1"><g transform="translate(246.110998, 228.762803)"><g><path d="M 2.578125 -6.390625 L 0.234375 -6.390625 L 0.234375 -8.046875 L 6.671875 -8.046875 L 6.671875 -6.390625 L 4.328125 -6.390625 L 4.328125 0 L 2.578125 0 Z M 2.578125 -6.390625 "/></g></g></g><g fill="#ffffff" fill-opacity="1"><g transform="translate(255.236196, 228.762803)"><g><path d="M 0.90625 -8.1875 L 1.796875 -8.1875 L 5.109375 -3.828125 L 8.390625 -8.1875 L 9.28125 -8.1875 L 9.28125 0 L 7.53125 0 L 7.53125 -4.46875 L 5.4375 -1.703125 L 4.734375 -1.703125 L 2.65625 -4.46875 L 2.65625 0 L 0.90625 0 Z M 0.90625 -8.1875 "/></g></g></g><g fill="#ffffff" fill-opacity="1"><g transform="translate(267.634175, 228.762803)"><g><path d="M 0.90625 -8.046875 L 5.5 -8.046875 L 5.5 -6.390625 L 2.65625 -6.390625 L 2.65625 -4.921875 L 4.734375 -4.921875 L 4.734375 -3.28125 L 2.65625 -3.28125 L 2.65625 -1.640625 L 5.5625 -1.640625 L 5.5625 0 L 0.90625 0 Z M 0.90625 -8.046875 "/></g></g></g><g fill="#ffffff" fill-opacity="1"><g transform="translate(276.004131, 228.762803)"><g><path d="M 2.5625 -4.78125 L 2.5625 0 L 0.90625 0 L 0.90625 -8.1875 L 1.8125 -8.1875 L 6.296875 -3.25 L 6.296875 -8.046875 L 7.953125 -8.046875 L 7.953125 0.140625 L 7.046875 0.140625 Z M 2.5625 -4.78125 "/></g></g></g><g fill="#ffffff" fill-opacity="1"><g transform="translate(287.071437, 228.762803)"><g><path d="M 2.578125 -6.390625 L 0.234375 -6.390625 L 0.234375 -8.046875 L 6.671875 -8.046875 L 6.671875 -6.390625 L 4.328125 -6.390625 L 4.328125 0 L 2.578125 0 Z M 2.578125 -6.390625 "/></g></g></g></svg>